# xmcd
#
# Track frame offsets:
#	150
#	19592
#	33918
#	49222
#	61769
#	76842
#	94060
#	110477
#	128853
#	145481
#	156567
#	169561
#	184469
#	197138
#
# Disc length: 2819 seconds
#
# Revision: 1
# Processed by: cddbd v1.4PL0 Copyright (c) Steve Scherf et al.
# Submitted via: audiograbber 1.80
#
DISCID=be0b010e
DTITLE=Rio Negro E Solimões - Só Alegria
DYEAR=1900
DGENRE=
TTITLE0=Coração, Chora De Saudade
TTITLE1=Balança, Mas Não Cai
TTITLE2=Solidão E Saudade
TTITLE3=Só Alegria
TTITLE4=Virou Paixão
TTITLE5=Vivendo Abandonado
TTITLE6=Te Dou O Mundo
TTITLE7=Tá Mentindo
TTITLE8=Lenha
TTITLE9=Deixa A Paixão Te Levar
TTITLE10=Fui Eu
TTITLE11=É Amor, É Paixão
TTITLE12=Lágrimas Geladas
TTITLE13=Bobeou, Tá Na Poeira
EXTD=By MASTER®
EXTT0=
EXTT1=
EXTT2=
EXTT3=
EXTT4=
EXTT5=
EXTT6=
EXTT7=
EXTT8=
EXTT9=
EXTT10=
EXTT11=
EXTT12=
EXTT13=
PLAYORDER=
